PathFileType	4	(X/Y/Z)	C:\Users\WrightLab\Desktop\Jo\P5V31.trc
DataRate	CameraRate	NumFrames	NumMarkers	Units	OrigDataRate	OrigDataStartFrame	OrigNumFrames
100.00	100.00	       25	19	mm	100.00	1	       907
Frame#	Time	Headset_Front			Headset_Back			Headset_Left			Headset_Right			Left_Shoulder			Right_Shoulder			Sternum			C7			Left Elbow			Right Elbow			Left Wrist			Right Wrist			Left ASIS			Right ASIS			S2			Left Knee			Right Knee			Left Ankle			Right Ankle			
		X1	Y1	Z1	X2	Y2	Z2	X3	Y3	Z3	X4	Y4	Z4	X5	Y5	Z5	X6	Y6	Z6	X7	Y7	Z7	X8	Y8	Z8	X9	Y9	Z9	X10	Y10	Z10	X11	Y11	Z11	X12	Y12	Z12	X13	Y13	Z13	X14	Y14	Z14	X15	Y15	Z15	X16	Y16	Z16	X17	Y17	Z17	X18	Y18	Z18	X19	Y19	Z19	

1	0.000																																								-377.29800	930.58807	-1304.33521				-59.42519	479.58722	-1369.43665	-427.86295	466.27411	-1353.59717							
2	0.010																																								-377.29800	930.58807	-1304.33521				-59.46575	479.50974	-1369.67639	-428.10767	466.16782	-1353.57544							
3	0.020																																								-377.31097	930.59882	-1304.33813				-59.71892	478.91986	-1369.20520	-428.12485	466.15186	-1353.58105							
4	0.030																																								-378.81177	931.46277	-1304.16479				-59.85393	478.64426	-1370.00073	-428.53098	466.22937	-1353.89990							
5	0.040																																								-378.87933	931.49896	-1304.17883				-60.03035	478.29922	-1371.04211	-428.81311	465.98874	-1354.40967							
6	0.050																																								-378.93869	931.53607	-1304.19153				-60.11979	478.11679	-1371.56921	-429.10989	465.72070	-1355.34338							
7	0.060																																								-379.47226	930.04871	-1309.64185				-60.35060	477.67822	-1372.93311	-429.15506	466.12567	-1356.23169							
8	0.070																																								-380.35712	931.58759	-1307.24426				-60.50328	477.36786	-1373.83301	-429.38821	465.55426	-1355.70862							
9	0.080																																								-381.02362	931.79059	-1306.20081				-60.74200	476.90256	-1375.24219	-429.33463	466.00027	-1356.30115							
10	0.090																																								-381.27182	931.56085	-1307.33508				-60.94497	476.51617	-1376.44141	-429.60995	465.81787	-1357.09167							
11	0.100																																								-381.56985	931.28668	-1308.69751				-61.03436	476.37012	-1376.97241	-429.74979	465.68741	-1357.36755							
12	0.110																																								-381.80731	931.09552	-1309.78735				-61.22065	476.02716	-1378.07434	-429.87189	465.60498	-1357.67810							
13	0.120																																								-382.03769	930.87500	-1310.83899				-61.27520	475.91895	-1378.39624	-429.87393	465.61783	-1357.68005							
14	0.130																																								-382.15967	930.81256	-1311.40479				-61.44422	475.60178	-1379.39539	-429.98203	465.21136	-1357.11292							
15	0.140																																								-382.28317	930.68756	-1311.96741				-61.93108	476.43802	-1378.45032	-429.90805	465.65710	-1357.69727							
16	0.150																																								-382.40210	930.55890	-1312.50757				-62.03793	476.24017	-1379.08191	-429.95624	465.61514	-1357.97974							
17	0.160																																								-382.55856	930.40967	-1313.22168				-62.12423	476.08096	-1379.59216	-429.72443	465.74924	-1358.01099							
18	0.170																																								-382.54218	930.46185	-1313.15295				-62.15896	476.00940	-1379.79651	-429.81454	465.64050	-1358.76050							
19	0.180																																								-382.64081	930.37256	-1313.60388				-62.21730	475.92926	-1380.14465	-429.63840	465.84833	-1358.55286							
20	0.190																																								-382.69067	930.39026	-1313.84229				-62.24409	475.86139	-1380.30090	-429.62555	465.86514	-1358.54907							
21	0.200																																								-382.49628	931.42987	-1314.87134				-62.25604	475.85068	-1380.37292	-428.78522	465.30005	-1358.65820							
22	0.210																																								-383.00500	932.25397	-1313.68237				-62.30304	475.75690	-1380.64990	-428.78110	465.30063	-1358.65784							
23	0.220																																								-383.12393	932.15546	-1314.22778				-62.33101	475.70624	-1380.81531	-428.76974	465.33939	-1358.66101							
24	0.230																																								-383.20258	932.16174	-1314.60071				-62.32465	475.72864	-1380.77893	-428.64359	465.54709	-1358.65991							
25	0.240																																								-383.32996	932.08582	-1315.18982				-62.37865	475.62405	-1381.09766	-428.94583	464.86801	-1359.94507							
